<svg width="65" height="65" viewBox="0 0 65 65" fill="none" xmlns="http://www.w3.org/2000/svg">
<path d="M32.5 5.94629C17.7534 5.94629 5.83337 17.8663 5.83337 32.613C5.83337 47.3596 17.7534 59.2796 32.5 59.2796C39.5725 59.2796 46.3552 56.4701 51.3562 51.4691C56.3572 46.4682 59.1667 39.6854 59.1667 32.613C59.1667 17.8663 47.1667 5.94629 32.5 5.94629ZM18.5267 24.133L21.3534 21.3063L24.18 24.133L27.0067 21.3063L29.8334 24.133L27.0067 26.9596L29.8334 29.7863L27.0067 32.613L24.18 29.7863L21.3534 32.613L18.5267 29.7863L21.3534 26.9596L18.5267 24.133ZM18.8734 47.2796C21.0067 41.8396 26.2867 37.9463 32.5 37.9463C38.7134 37.9463 43.9934 41.8396 46.1267 47.2796H18.8734ZM46.4734 29.7863L43.6467 32.613L40.82 29.7863L37.9934 32.613L35.1667 29.7863L37.9934 26.9596L35.1667 24.133L37.9934 21.3063L40.82 24.133L43.6467 21.3063L46.4734 24.133L43.6467 26.9596L46.4734 29.7863Z" fill="#8C8C8C"/>
</svg>
